<?xml version="1.0" encoding="UTF-8" standalone="no"?>
<!-- Created with Inkscape (http://www.inkscape.org/) -->

<svg
   width="120"
   height="120"
   viewBox="0 0 31.749998 31.750001"
   version="1.1"
   id="svg102"
   inkscape:version="1.1.2 (1:1.1+202202050950+0a00cf5339)"
   sodipodi:docname="fausto.svg"
   inkscape:export-filename="/home/rocha/live-de-python/fausto-stickers.png"
   inkscape:export-xdpi="96"
   inkscape:export-ydpi="96"
   xmlns:inkscape="http://www.inkscape.org/namespaces/inkscape"
   xmlns:sodipodi="http://sodipodi.sourceforge.net/DTD/sodipodi-0.dtd"
   xmlns="http://www.w3.org/2000/svg"
   xmlns:svg="http://www.w3.org/2000/svg"
   xmlns:rdf="http://www.w3.org/1999/02/22-rdf-syntax-ns#"
   xmlns:cc="http://creativecommons.org/ns#"
   xmlns:dc="http://purl.org/dc/elements/1.1/">
  <defs
     id="defs96" />
  <sodipodi:namedview
     id="base"
     pagecolor="#ffffff"
     bordercolor="#666666"
     borderopacity="1.0"
     inkscape:pageopacity="0.0"
     inkscape:pageshadow="2"
     inkscape:zoom="0.7071068"
     inkscape:cx="40.305085"
     inkscape:cy="145.66399"
     inkscape:document-units="mm"
     inkscape:current-layer="g67"
     showgrid="false"
     units="px"
     inkscape:window-width="1920"
     inkscape:window-height="1016"
     inkscape:window-x="0"
     inkscape:window-y="27"
     inkscape:window-maximized="1"
     inkscape:pagecheckerboard="0" />
  <metadata
     id="metadata99">
    <rdf:RDF>
      <cc:Work
         rdf:about="">
        <dc:format>image/svg+xml</dc:format>
        <dc:type
           rdf:resource="http://purl.org/dc/dcmitype/StillImage" />
      </cc:Work>
    </rdf:RDF>
  </metadata>
  <g
     inkscape:label="Layer 1"
     inkscape:groupmode="layer"
     id="layer1"
     transform="translate(0,-161.53332)">
    <g
       transform="matrix(1.2067348,0,0,-1.2067348,-171.65959,504.53713)"
       id="g67">
      <g
         id="g48"
         transform="matrix(0.23437499,0,0,0.23437499,108.91115,217.62221)">
        <path
           style="opacity:1;vector-effect:none;fill:#ffffff;fill-opacity:1;stroke:none;stroke-width:0.00219256;stroke-linecap:butt;stroke-linejoin:miter;stroke-miterlimit:4;stroke-dasharray:none;stroke-dashoffset:0;stroke-opacity:1"
           d="m 202.53809,224.38183 c -0.25471,-0.002 -0.59787,-0.0818 -1.03118,-0.23467 -0.25663,-0.0905 -0.76281,-0.20449 -1.37164,-0.31518 -0.60883,-0.11069 -1.32006,-0.21796 -1.987,-0.29548 -0.66338,-0.0771 -1.39477,-0.11774 -2.14674,-0.12505 -0.75196,-0.007 -1.52468,0.0185 -2.27135,0.0741 -0.74666,0.0556 -1.46712,0.1408 -2.11461,0.25223 -0.6475,0.11143 -1.2221,0.24905 -1.67654,0.40939 -0.2607,0.092 -0.49214,0.15392 -0.69288,0.18628 -0.20075,0.0324 -0.37078,0.0351 -0.50789,0.009 -0.1371,-0.0266 -0.24155,-0.0822 -0.31132,-0.167 -0.0698,-0.0848 -0.10488,-0.19888 -0.10363,-0.34131 0.001,-0.13356 0.0646,-0.33971 0.17729,-0.5961 0.11267,-0.25639 0.27458,-0.56282 0.47191,-0.89629 0.39467,-0.66695 0.93149,-1.44248 1.50267,-2.14331 0.28863,-0.35416 0.72491,-0.79769 1.22603,-1.26372 0.50113,-0.46603 1.06712,-0.95431 1.61573,-1.39861 0.5486,-0.4443 1.07973,-0.84458 1.51081,-1.13353 0.43107,-0.28896 0.7623,-0.46678 0.91085,-0.46678 0.1155,0 0.41508,0.15651 0.80508,0.40897 0.38999,0.25245 0.87042,0.60086 1.34679,0.98408 0.52107,0.41918 1.01078,0.8409 1.46627,1.26243 0.4555,0.42152 0.87646,0.84295 1.26072,1.26072 0.38427,0.41776 0.73152,0.83226 1.0389,1.24016 0.30737,0.40791 0.57512,0.80926 0.79994,1.2012 0.20274,0.35346 0.35709,0.66112 0.46249,0.9237 0.1054,0.26257 0.16183,0.47993 0.16915,0.65305 0.007,0.17312 -0.0348,0.30203 -0.12632,0.38713 -0.0915,0.0851 -0.2325,0.12654 -0.42353,0.12504 z"
           id="path4235"
           inkscape:connector-curvature="0" />
        <path
           style="opacity:1;vector-effect:none;fill:#ffffff;fill-opacity:1;stroke:none;stroke-width:0.00219256;stroke-linecap:butt;stroke-linejoin:miter;stroke-miterlimit:4;stroke-dasharray:none;stroke-dashoffset:0;stroke-opacity:1"
           d="m 208.35345,262.65297 v -4.4e-4 c -0.0966,-0.0147 -0.16775,-0.0693 -0.21369,-0.16401 -0.046,-0.0947 -0.0668,-0.22996 -0.0625,-0.40511 0.008,-0.3503 0.11705,-0.86171 0.32331,-1.53607 0.13828,-0.4521 0.2587,-0.92255 0.35886,-1.38834 0.10016,-0.46579 0.17994,-0.92687 0.23596,-1.36007 0.056,-0.4332 0.0884,-0.83873 0.0942,-1.19306 0.006,-0.35432 -0.0148,-0.65727 -0.0651,-0.88644 -0.0378,-0.17223 -0.0661,-0.30142 -0.11434,-0.39826 -0.0482,-0.0968 -0.11648,-0.16169 -0.23339,-0.20469 -0.23381,-0.086 -0.66327,-0.0856 -1.52151,-0.0856 -0.60931,0 -1.03831,0.0207 -1.31511,0.0672 -0.13839,0.0232 -0.23869,0.0528 -0.30447,0.0895 -0.0658,0.0367 -0.097,0.0806 -0.0972,0.13189 -4.4e-4,0.15903 -0.20642,0.62633 -0.45692,1.03718 -0.14228,0.23335 -0.27951,0.39958 -0.41282,0.49889 -0.13331,0.0993 -0.26261,0.13135 -0.38969,0.0959 -0.12709,-0.0354 -0.25197,-0.13833 -0.37556,-0.30919 -0.1236,-0.17085 -0.24588,-0.40944 -0.36871,-0.71643 l -0.35886,-0.89501 h -5.04931 -5.05101 l -0.13318,1.09842 c -0.21379,1.76685 -0.32787,2.67761 -0.44836,3.14666 -0.0602,0.23453 -0.12182,0.35891 -0.1987,0.42438 -0.0769,0.0655 -0.16891,0.0724 -0.28906,0.0724 -0.10207,0 -0.18336,-0.0137 -0.25052,-0.0595 -0.0671,-0.0459 -0.12023,-0.1239 -0.16572,-0.25309 -0.091,-0.25838 -0.15175,-0.72121 -0.23553,-1.53779 -0.13129,-1.27962 -0.21858,-2.00239 -0.32203,-2.40538 -0.0517,-0.2015 -0.10736,-0.32283 -0.17472,-0.39398 -0.0674,-0.0711 -0.14646,-0.0921 -0.24452,-0.0921 -0.0942,0 -0.18118,0.0192 -0.24538,0.0505 -0.0642,0.0313 -0.1057,0.0748 -0.1092,0.12248 -0.007,0.0954 -0.19606,0.90194 -0.42053,1.79258 -0.18078,0.71729 -0.29842,1.12237 -0.43166,1.34808 -0.0666,0.11286 -0.13677,0.18116 -0.22096,0.22097 -0.0842,0.0398 -0.1822,0.0514 -0.30362,0.0514 -0.1199,0 -0.21887,-0.0144 -0.30747,-0.06 -0.0886,-0.0456 -0.16684,-0.12227 -0.24624,-0.24838 -0.1588,-0.25221 -0.32155,-0.70055 -0.57597,-1.48468 l -0.58283,-1.79302 h -2.41566 -2.41695 l 0.13189,2.02427 c 0.0365,0.55959 0.12712,1.24142 0.24452,1.89194 0.11741,0.65052 0.26141,1.26983 0.40426,1.70437 0.15012,0.45665 0.25305,0.82636 0.30576,1.11555 0.0527,0.28918 0.0552,0.4977 0.006,0.63164 -0.0246,0.067 -0.0621,0.11558 -0.11305,0.14603 -0.051,0.0304 -0.11529,0.0426 -0.19313,0.0381 -0.15569,-0.009 -0.36585,-0.0862 -0.63251,-0.22611 -0.25649,-0.13453 -0.52865,-0.32358 -0.8115,-0.55884 -0.28284,-0.23526 -0.57641,-0.51694 -0.87531,-0.83763 -0.29889,-0.32068 -0.60322,-0.68021 -0.90785,-1.07101 -0.30464,-0.3908 -0.6095,-0.81297 -0.90957,-1.25858 -0.60015,-0.89121 -1.18092,-1.87669 -1.70094,-2.89528 -0.26002,-0.5093 -0.50476,-1.02689 -0.72929,-1.54507 -0.22452,-0.51818 -0.42851,-1.03674 -0.60723,-1.54849 -0.16331,-0.46765 -0.28959,-0.84486 -0.38712,-1.18921 -0.0975,-0.34434 -0.16632,-0.65592 -0.21455,-0.99307 -0.0965,-0.6743 -0.11077,-1.45039 -0.10877,-2.79251 0.001,-0.8835 0.0202,-1.72124 0.0591,-2.51887 0.0389,-0.79763 0.0975,-1.555 0.17729,-2.27821 0.0798,-0.7232 0.181,-1.41198 0.30491,-2.07222 0.1239,-0.66023 0.27071,-1.2918 0.44193,-1.9005 0.17123,-0.6087 0.36706,-1.19485 0.58882,-1.76346 0.22177,-0.56862 0.4696,-1.11986 0.74513,-1.65984 0.27553,-0.53997 0.57878,-1.06854 0.91128,-1.59131 0.33251,-0.52278 0.69415,-1.03961 1.08686,-1.55663 0.28544,-0.3758 0.69958,-0.84771 1.17207,-1.34851 0.4725,-0.50079 1.00332,-1.03071 1.52195,-1.5228 0.51862,-0.49208 1.02529,-0.94617 1.44914,-1.29583 0.42384,-0.34967 0.76467,-0.59493 0.95282,-0.66848 0.28009,-0.10949 0.90545,-0.44632 1.38876,-0.74855 0.30008,-0.18765 0.6879,-0.38973 1.12925,-0.59353 0.44135,-0.20379 0.93635,-0.40935 1.45043,-0.60338 0.51407,-0.19403 1.04735,-0.3765 1.56562,-0.53486 0.51826,-0.15836 1.02135,-0.29249 1.47526,-0.38927 0.51165,-0.10897 1.14966,-0.19083 1.85126,-0.24538 0.7016,-0.0545 1.46708,-0.0817 2.23452,-0.0818 0.76744,-1e-4 1.5365,0.027 2.24566,0.0814 0.70915,0.0544 1.35832,0.13608 1.88508,0.24495 0.51045,0.10543 1.04143,0.23827 1.56948,0.39012 0.52805,0.15184 1.05314,0.32277 1.55191,0.50403 0.49878,0.18125 0.97127,0.37289 1.39391,0.56655 0.42263,0.19367 0.79538,0.38904 1.09499,0.57811 0.47515,0.29986 1.10569,0.62244 1.40204,0.71644 0.14816,0.047 0.56075,0.36692 1.10612,0.84448 0.54537,0.47756 1.2235,1.11287 1.90264,1.79087 0.61479,0.61375 1.17732,1.21753 1.69153,1.82085 0.5142,0.60332 0.97989,1.2062 1.40032,1.81742 0.42043,0.61122 0.7958,1.23094 1.12925,1.86839 0.33346,0.63744 0.62503,1.29257 0.87831,1.97458 0.25328,0.68201 0.46801,1.3907 0.64792,2.1356 0.17991,0.74491 0.32516,1.52616 0.43851,2.35229 0.11334,0.82613 0.19479,1.69724 0.24837,2.62293 0.0536,0.92568 0.079,1.90567 0.0797,2.94924 0.001,1.40724 -0.0121,2.20823 -0.10835,2.89315 -0.0481,0.34246 -0.11722,0.65585 -0.2154,1.00164 -0.0982,0.34578 -0.22563,0.72391 -0.39098,1.19563 -0.29103,0.83028 -0.65824,1.693 -1.07743,2.54841 -0.41919,0.85542 -0.89026,1.70367 -1.38876,2.5056 -0.49851,0.80192 -1.02466,1.55743 -1.55363,2.22724 -0.52898,0.66981 -1.06102,1.25385 -1.57162,1.71293 -0.4014,0.36089 -0.73883,0.62645 -1.01363,0.79609 -0.2748,0.16964 -0.48691,0.24339 -0.63721,0.22054 z"
           id="path4231"
           inkscape:connector-curvature="0" />
        <path
           inkscape:connector-curvature="0"
           id="path1273"
           d="m 231.56035,172.38724 c 0.43453,0.22246 0.98519,0.76882 1.22371,1.21414 0.41082,0.76705 0.42953,1.43065 0.35533,12.60767 l -0.0783,11.798 -0.59825,2.19767 c -1.32303,4.86019 -3.1071,8.30555 -6.17793,11.93074 -1.37198,1.61965 -3.09787,3.10593 -3.60667,3.10593 -0.32448,0 -10e-4,-0.64167 1.2847,-2.55131 2.13848,-3.17536 3.3156,-5.96426 4.19569,-9.94069 0.44516,-2.01133 0.49506,-3.10058 0.58844,-12.84618 0.0721,-7.52354 0.0249,-10.93511 -0.16095,-11.62512 -0.50297,-1.86791 2.28162,-1.71868 -31.73072,-1.70046 -19.87796,0.0106 -30.48772,-0.0637 -30.77183,-0.2158 -1.03562,-0.55425 -0.2375,-3.18615 1.19999,-3.95708 0.75225,-0.40343 2.21742,-0.42269 32.13747,-0.42235 29.38997,2.3e-4 31.39866,0.0256 32.13933,0.40484 z"
           style="fill:#fecffc;fill-opacity:1;stroke-width:0.231333" />
        <path
           inkscape:connector-curvature="0"
           id="path1403"
           d="m 260.96484,162.01172 c -7.75083,0 -15.5013,3.70488 -23.24414,11.11328 -6.27794,6.00677 -11.90163,14.35996 -15.77343,23.43164 -3.32047,7.77989 -5.28078,18.34267 -4.51368,24.32422 1.49883,11.68725 11.13824,22.34432 27.95508,30.9082 3.13306,1.5955 4.03063,2.19194 4.10938,2.72852 0.1324,0.90249 -0.45776,1.57812 -1.37891,1.57812 -1.31783,0 -7.57512,-3.15291 -12.36328,-6.23047 l -1.91992,-1.23632 -1.4961,1.09961 c -2.15497,1.58189 -5.83257,5.54991 -7.58789,8.1875 -2.84824,4.27982 -4.73737,9.48426 -5.41992,14.92773 -0.17335,1.38245 -0.30559,6.6816 -0.29297,11.77539 0,0 -0.3098,18.28784 0.69336,18.11133 l 12.83594,0.004 c 0,0 0.26465,-6.87976 0.69726,-27.58008 0.0868,-6.2884 0.13548,-6.80293 0.69141,-7.20899 3.11824,-1.58556 2.49156,6.75703 2.49219,8.77344 0.61156,15.89375 -1.75586,26.00586 -1.75586,26.00586 1.91395,-0.012 4.50618,-0.0113 7.8418,-0.002 l 1.0625,-5.14063 c 1.24816,-6.25191 1.25155,-6.64669 0.0664,-8.36914 -1.36793,-1.98824 -2.59679,-4.86037 -3.17383,-7.42187 -2.42873,-10.7815 4.51671,-21.80841 15.53907,-24.66993 2.62508,-0.6815 7.24601,-0.6815 9.87109,0 11.01187,2.8588 17.96354,13.89869 15.53711,24.66993 -0.57483,2.5517 -1.81598,5.46056 -3.21875,7.53906 -0.83549,1.23797 -0.95189,1.63855 -0.81836,2.8418 0.20361,1.83467 1.94531,10.50976 1.94531,10.50976 h 7.81055 c 0,0 -1.22957,-13.17759 -1.33398,-16.66797 0.0107,-3.74154 -0.8423,-16.98785 0.54492,-18.04297 0.88972,-0.58297 1.69246,-0.31926 2.07226,0.67969 0.15664,0.41201 0.28516,3.58606 0.28516,7.05273 0.0156,3.10257 -0.01,6.01953 0.084,9.0293 0.11254,2.9422 0.24024,17.94141 0.24024,17.94141 l 11.58008,-0.004 c 2.47104,0 2.347,0.89465 2.19921,-15.85156 -0.12053,-13.65733 -0.18119,-15.04571 -0.76562,-17.45898 -1.73857,-7.1792 -4.93416,-12.68764 -10.26562,-17.69532 -3.55263,-3.33686 -3.54965,-3.33569 -5.91407,-1.79883 -3.34973,2.17735 -11.15528,6.23002 -12.00195,6.23047 -0.99256,6.2e-4 -1.58568,-0.65271 -1.45117,-1.60156 0.0803,-0.56663 0.94705,-1.15353 4.26562,-2.88672 8.36722,-4.3699 13.084,-7.6651 18.06836,-12.625 5.13883,-5.1136 7.65621,-9.14127 9.14258,-14.62695 0.49368,-1.82205 0.63514,-3.26845 0.63477,-6.50781 -6.2e-4,-4.79439 -0.52489,-8.32224 -2.07032,-13.94727 -3.07553,-11.19432 -10.01029,-22.88038 -18.26172,-30.77539 -7.74284,-7.4084 -15.49331,-11.11328 -23.24414,-11.11328 z m 16.83985,27.78516 c 0.40079,-0.061 1.13078,0.39309 2.20117,1.35546 2.72321,2.44842 5.90289,7.564 7.45508,11.99219 0.88184,2.51584 0.95579,3.03448 0.95312,6.78711 -0.007,11.13149 -2.12778,16.84195 -8.68554,23.38867 -2.08856,1.98666 -3.77276,3.15069 -5.88086,4.46875 -1.59794,1.00838 -4.75806,2.15643 -7.48047,2.71875 -2.80939,0.58062 -8.22629,0.57985 -10.95508,-0.002 -2.42087,-0.51616 -5.8937,-1.82733 -7.49414,-2.82813 -3.34357,-1.80648 -6.32828,-4.47496 -8.64649,-7.44531 -4.18884,-5.51493 -5.74057,-11.03113 -5.7539,-20.45508 -0.005,-3.579 0.0762,-4.13869 0.94726,-6.63281 1.90639,-5.45869 5.98678,-11.51811 8.72266,-12.95312 1.42216,-0.74594 1.63658,-0.16207 0.83594,2.27343 -0.38092,1.15876 -0.76804,3.3027 -0.86524,4.79493 l -0.17578,2.69921 h 3.22266 3.2207 l 0.77734,-2.39062 c 0.67846,-2.09101 0.86644,-2.39063 1.50586,-2.39063 0.6476,0 0.79332,0.24741 1.2754,2.16016 0.29929,1.18752 0.55121,2.26343 0.56054,2.39063 0.009,0.1272 0.22143,0.23046 0.47266,0.23046 0.523,0 0.63819,-0.44314 0.98828,-3.85546 0.22341,-2.17755 0.32475,-2.4668 0.86914,-2.4668 0.64079,0 0.67794,0.14582 1.24805,4.85742 l 0.17773,1.46484 h 6.73438 6.73242 l 0.47851,-1.19336 c 0.65511,-1.63727 1.30372,-1.81871 2.0625,-0.57421 0.33402,0.5478 0.60877,1.17076 0.60938,1.38281 8.3e-4,0.27369 0.66425,0.38476 2.28906,0.38476 2.28864,0 2.29044,5.8e-4 2.49219,-0.91796 0.26844,-1.22222 -0.0945,-4.02633 -0.83203,-6.4375 -0.55004,-1.7983 -0.57781,-2.72823 -0.0625,-2.80664 z m -7.75391,51.02734 c 1.01884,-0.008 0.97193,0.90005 -0.10937,2.78516 -1.19904,2.09035 -3.30885,4.38352 -6.08789,6.61914 -1.27032,1.02192 -2.56113,1.85742 -2.86914,1.85742 -0.79224,0 -5.47821,-3.79478 -7.01758,-5.6836 -1.52316,-1.8689 -2.86381,-4.13529 -2.86914,-4.84765 -0.006,-0.75962 0.76391,-0.90853 2.15429,-0.41797 2.42368,0.85515 7.40728,1.22571 10.94532,0.81445 1.7785,-0.20674 3.79418,-0.57301 4.47851,-0.81445 0.57775,-0.20384 1.03539,-0.3097 1.375,-0.3125 z"
           style="fill:#ff6dff;fill-opacity:1;stroke:#31265e;stroke-width:2;stroke-miterlimit:4;stroke-dasharray:none;stroke-opacity:1"
           transform="matrix(0.75000002,0,0,-0.75000002,0,405.00001)"
           sodipodi:nodetypes="csssccsccccccccccccccccssccccccccccccsccccccccccscccccccccccccccccccccsccscscccccccsccccccsscccccc" />
        <path
           inkscape:connector-curvature="0"
           id="path1373"
           d="m 260.96484,177.33203 c -6.24129,0 -11.84975,2.0602 -17.64843,6.48438 -6.80066,5.18866 -12.8641,12.91429 -17.40039,22.16992 -2.4548,5.00864 -2.70827,6.15625 -1.35938,6.15625 0.8454,0 0.80286,0.0656 3.03516,-4.78711 1.7514,-3.80732 3.64738,-6.88612 4.07617,-6.62109 0.18431,0.11387 0.30273,3.02544 0.30273,7.43554 0,3.98656 0.14963,8.24485 0.33203,9.46485 1.39451,9.3269 7.25269,17.67524 15.25586,21.73632 1.06131,0.53855 1.32392,0.87769 1.76758,2.28516 1.04734,3.32251 4.34779,7.28858 8.95899,10.76953 1.32518,1.00037 2.53092,1.82031 2.67968,1.82031 0.5612,0 5.16885,-3.7212 7.13477,-5.76171 2.44268,-2.5354 3.79599,-4.58856 4.50195,-6.82813 0.44367,-1.40747 0.70627,-1.74661 1.76758,-2.28516 6.89607,-3.49929 12.48688,-10.54518 14.58008,-18.37304 0.74896,-2.80084 0.80929,-3.54418 0.92969,-11.47657 0.0708,-4.66522 0.24677,-8.60469 0.39062,-8.7539 0.36825,-0.382 2.29921,2.74624 4.06641,6.58789 2.23229,4.85268 2.19172,4.78711 3.03711,4.78711 1.34889,0 1.09541,-1.14761 -1.35938,-6.15625 -4.53629,-9.25563 -10.59972,-16.98126 -17.40039,-22.16992 -5.79867,-4.42418 -11.40713,-6.48438 -17.64844,-6.48438 z m 16.83985,12.46485 c 0.40079,-0.061 1.13078,0.39309 2.20117,1.35546 2.72321,2.44842 5.90289,7.564 7.45508,11.99219 0.88184,2.51584 0.95579,3.03448 0.95312,6.78711 -0.007,11.13149 -2.12778,16.84195 -8.68554,23.38867 -1.77534,2.24768 -3.77276,3.15069 -5.88086,4.46875 -1.59794,1.00838 -4.75806,2.15643 -7.48047,2.71875 -2.80939,0.58062 -8.22629,0.57985 -10.95508,-0.002 -2.42087,-0.51616 -5.8937,-1.82733 -7.49414,-2.82813 -0.64441,-0.40297 -1.47811,-0.85203 -1.85156,-0.99804 -1.00344,-0.39235 -5.27259,-4.44299 -6.79493,-6.44727 -4.18884,-5.51493 -5.74057,-11.03113 -5.7539,-20.45508 -0.005,-3.579 0.0762,-4.13869 0.94726,-6.63281 1.90639,-5.45869 5.98678,-11.51811 8.72266,-12.95312 1.42216,-0.74594 1.63658,-0.16207 0.83594,2.27343 -0.38092,1.15876 -0.76804,3.3027 -0.86524,4.79493 l -0.17578,2.69921 h 3.22266 3.2207 l 0.77734,-2.39062 c 0.67846,-2.09101 0.86644,-2.39063 1.50586,-2.39063 0.6476,0 0.79332,0.24741 1.2754,2.16016 0.29929,1.18752 0.55121,2.26343 0.56054,2.39063 0.009,0.1272 0.22143,0.23046 0.47266,0.23046 0.523,0 0.63819,-0.44314 0.98828,-3.85546 0.22341,-2.17755 0.32475,-2.4668 0.86914,-2.4668 0.64079,0 0.67794,0.14582 1.24805,4.85742 l 0.17773,1.46484 h 6.73438 6.73242 l 0.47851,-1.19336 c 0.65511,-1.63727 1.30372,-1.81871 2.0625,-0.57421 0.33402,0.5478 0.60877,1.17076 0.60938,1.38281 8.3e-4,0.27369 0.66425,0.38476 2.28906,0.38476 2.28864,0 2.29044,5.8e-4 2.49219,-0.91796 0.26844,-1.22222 -0.0945,-4.02633 -0.83203,-6.4375 -0.55004,-1.7983 -0.57781,-2.72823 -0.0625,-2.80664 z m -7.75391,51.02734 c 1.01884,-0.008 0.97193,0.90005 -0.10937,2.78516 -1.19904,2.09035 -3.30885,4.38352 -6.08789,6.61914 -1.27032,1.02192 -2.56113,1.85742 -2.86914,1.85742 -0.79224,0 -5.47821,-3.79478 -7.01758,-5.6836 -1.52316,-1.8689 -2.86381,-4.13529 -2.86914,-4.84765 -0.006,-0.75962 0.76391,-0.90853 2.15429,-0.41797 2.42368,0.85515 7.40728,1.22571 10.94532,0.81445 1.7785,-0.20674 3.79418,-0.57301 4.47851,-0.81445 0.57775,-0.20384 1.03539,-0.3097 1.375,-0.3125 z"
           style="fill:#3a2c61;fill-opacity:1;stroke-width:0.308445"
           transform="matrix(0.75000002,0,0,-0.75000002,0,405.00001)"
           sodipodi:nodetypes="sscsccsccccsccccccsssssccccccccccscccccccccsccscscccccccsccccccsscccccc" />
        <path
           inkscape:connector-curvature="0"
           id="path1383"
           d="m 206.45172,188.9272 c 0.75322,0.98776 1.87211,3.26324 2.24657,4.56883 0.16422,0.57255 0.29654,2.13405 0.29406,3.47 -0.005,2.88658 -0.6031,4.88962 -2.18245,7.3137 -5.09171,7.81506 -17.08151,7.81506 -22.17322,0 -1.57934,-2.42408 -2.17706,-4.42712 -2.18244,-7.3137 -0.002,-1.33595 0.12983,-2.89745 0.29405,-3.47 0.37447,-1.30559 1.49336,-3.58107 2.24657,-4.56883 l 0.57331,-0.75184 h 10.15512 10.15513 z"
           style="fill:#9858a7;stroke-width:0.231333" />
        <path
           inkscape:connector-curvature="0"
           id="path1321"
           d="m 207.05863,178.79132 c 0,0.43703 -0.10152,1.06163 -0.22561,1.388 -0.21004,0.55244 -0.32873,0.59339 -1.71994,0.59339 -1.93377,0 -2.68112,0.28068 -2.68112,1.00695 0,0.81543 0.42337,1.04233 2.09087,1.12058 l 1.4948,0.0701 -0.0133,1.07932 c -0.0237,1.92371 0.60487,1.8128 -10.25151,1.80881 -5.29641,-0.002 -9.77068,-0.0928 -9.94281,-0.20187 -0.19155,-0.12138 -0.32618,-0.68093 -0.347,-1.44229 l -0.034,-1.24397 3.56949,-0.0641 c 3.6404,-0.0654 4.18018,-0.19347 4.18018,-0.99213 0,-0.94423 -0.80929,-1.14146 -4.68387,-1.14146 h -3.65559 l -0.22561,-0.59339 c -0.12408,-0.32637 -0.2256,-0.95097 -0.2256,-1.388 v -0.79461 h 11.33533 11.33534 z"
           style="fill:#564e96;stroke-width:0.231333" />
        <path
           inkscape:connector-curvature="0"
           id="path1433"
           d="m 200.91452,204.12301 0.65112,0.67962 -0.55001,0.69558 c -0.3025,0.38257 -0.63609,0.70134 -0.7413,0.70838 -0.10521,0.007 -0.49632,-0.29223 -0.86914,-0.66505 l -0.67784,-0.67784 0.6378,-0.6827 c 0.3508,-0.37549 0.69641,-0.69506 0.76803,-0.71016 0.0716,-0.0151 0.42322,0.27838 0.78134,0.65217 z"
           style="fill:#ffd2ff;fill-opacity:1;stroke-width:0.231333" />
        <path
           inkscape:connector-curvature="0"
           id="path1425"
           d="m 194.68229,231.20096 c -1.1197,0.17716 -2.3232,0.77338 -3.18083,1.57579 -0.71469,0.66867 -0.80875,1.2341 -0.27849,1.67418 0.29755,0.24694 0.46285,0.21168 0.98317,-0.20971 1.06352,-0.86132 2.42963,-1.40833 3.51715,-1.40833 1.08752,0 2.45363,0.54701 3.51715,1.40833 0.52033,0.42139 0.68562,0.45665 0.98317,0.20971 0.5594,-0.46426 0.42413,-1.06825 -0.39415,-1.75989 -1.44492,-1.22132 -3.35356,-1.77386 -5.14717,-1.49008 z"
           style="fill:#f46cf9;stroke-width:0.231333" />
        <path
           inkscape:connector-curvature="0"
           id="path1419"
           d="m 203.46241,245.18855 c -0.78908,0.78907 -0.78908,2.23929 0,3.02836 1.3206,1.32061 3.59618,0.33585 3.59618,-1.55624 0,-1.25768 -0.79839,-2.03994 -2.082,-2.03994 -0.69634,0 -1.09638,0.15002 -1.51418,0.56782 z"
           style="fill:#472d6a;fill-opacity:1;stroke-width:0.231333" />
        <path
           inkscape:connector-curvature="0"
           id="path1417"
           d="m 183.13211,250.30492 c -0.44294,0.44294 -0.45004,0.58641 -0.0557,1.12575 0.20942,0.2864 1.00462,0.55667 2.48683,0.84521 2.34276,0.45606 2.86208,0.41624 3.21686,-0.24666 0.42398,-0.79222 -0.3704,-1.32808 -2.55958,-1.72659 -2.45975,-0.44777 -2.63853,-0.44763 -3.08845,0.002 z"
           style="fill:#472d6a;fill-opacity:1;stroke-width:0.231333" />
        <path
           inkscape:connector-curvature="0"
           id="path1415"
           d="m 204.88599,250.37152 c -1.35562,0.28182 -1.91085,0.50916 -2.15679,0.88307 -0.29789,0.45291 -0.28146,0.55328 0.1635,0.99824 0.35257,0.35257 0.67313,0.45876 1.11579,0.36963 0.34161,-0.0688 1.33671,-0.24465 2.21135,-0.39082 1.48119,-0.24754 2.45808,-0.78343 2.45808,-1.3484 0,-0.43443 -0.74452,-0.94115 -1.34669,-0.91655 -0.3408,0.0139 -1.44116,0.19609 -2.44524,0.40483 z"
           style="fill:#472d6a;fill-opacity:1;stroke-width:0.231333" />
        <path
           inkscape:connector-curvature="0"
           id="path1227"
           d="m 170.55737,264.39972 c 8.63327,13.072 19.69513,19.25256 29.84822,16.67702 7.5553,-1.91656 14.56315,-7.66728 20.68575,-16.97494 2.09087,-3.17857 2.29847,-3.44422 1.84627,-2.36242 -1.55594,3.72229 -5.95448,9.75612 -9.78098,13.41734 -11.61426,11.1126 -23.25249,11.1126 -34.86675,0 -3.8265,-3.66122 -8.22505,-9.69505 -9.78099,-13.41734 -0.45523,-1.08905 -0.26219,-0.83836 2.04848,2.66034 z"
           style="fill:#fff9fb;fill-opacity:1;stroke-width:0.231333" />
        <path
           inkscape:connector-curvature="0"
           id="path1319"
           d="m 195.95463,180.93325 c -0.37285,0.13326 -0.92534,0.74454 -0.92534,1.02382 0,0.0938 0.16359,0.33418 0.36353,0.53412 0.27867,0.27868 0.86875,0.36352 2.52814,0.36352 1.65939,0 2.24947,-0.0848 2.52814,-0.36352 0.47619,-0.47619 0.45868,-0.69799 -0.0991,-1.25581 -0.38698,-0.38698 -0.75595,-0.45968 -2.2555,-0.4444 -0.98606,0.01 -1.94898,0.0741 -2.13983,0.14227 z"
           style="fill:#362d60;fill-opacity:1;stroke-width:0.231333" />
        <path
           inkscape:connector-curvature="0"
           id="path1435"
           d="m 203.01785,193.09122 c 0.32906,1.10931 1.31459,2.23026 2.32675,2.64645 0.56006,0.23029 1.01869,0.5021 1.01916,0.60402 4.6e-4,0.10192 -0.38951,0.34651 -0.86663,0.54354 -1.17408,0.48483 -1.62784,0.92593 -2.2844,2.22065 -0.30648,0.60436 -0.60265,1.09884 -0.65817,1.09884 -0.0555,0 -0.29988,-0.44243 -0.54302,-0.98317 -0.52701,-1.17209 -1.24409,-1.87333 -2.41657,-2.36323 -0.47539,-0.19863 -0.86434,-0.41004 -0.86434,-0.46981 0,-0.0598 0.49447,-0.35942 1.09883,-0.66589 1.29473,-0.65657 1.73582,-1.11033 2.22066,-2.2844 0.40712,-0.98588 0.74254,-1.10615 0.96773,-0.347 z"
           style="fill:#ffd2ff;fill-opacity:1;stroke-width:0.231333" />
        <path
           sodipodi:nodetypes="ccsssscsscc"
           inkscape:connector-curvature="0"
           id="path1423"
           d="m 194.70639,236.52573 c -1.46837,0.45523 -2.44869,2.00992 -2.45185,3.88837 -0.002,1.04187 0.37195,1.66196 1.00158,1.66196 0.77681,0 1.07913,-0.43717 1.07913,-1.56044 0,-0.75886 0.13918,-1.14443 0.56782,-1.57307 0.3123,-0.3123 0.68138,-0.42293 0.82018,-0.42293 0.1388,0 0.50788,0.11063 0.82018,0.42293 0.42865,0.42864 0.56782,0.81421 0.56782,1.57307 0,1.12327 0.30233,1.56044 1.07913,1.56044 0.76518,0 1.0826,-0.77998 0.92781,-2.27983 -0.25083,-2.43031 -2.27703,-3.93234 -4.4118,-3.2705 z"
           style="fill:#383064;fill-opacity:1;stroke-width:0.231333" />
        <path
           inkscape:connector-curvature="0"
           id="path1421"
           d="m 184.95574,245.18855 c -1.32061,1.3206 -0.33585,3.59618 1.55624,3.59618 1.25768,0 2.03994,-0.79838 2.03994,-2.082 0,-0.69633 -0.15002,-1.09638 -0.56782,-1.51418 -0.4178,-0.4178 -0.81785,-0.56782 -1.51418,-0.56782 -0.69634,0 -1.09638,0.15002 -1.51418,0.56782 z"
           style="fill:#472d6a;fill-opacity:1;stroke-width:0.231333" />
        <path
           inkscape:connector-curvature="0"
           id="path1243"
           d="m 224.07398,218.13786 c 5.85107,4.81237 9.28209,10.35031 10.29059,16.60981 0.77013,4.77994 -0.73034,13.23214 -3.51856,19.82019 -1.67144,3.9493 -5.04692,9.7208 -7.71609,13.19321 -2.13179,2.77332 -5.68589,6.23905 -6.39814,6.23905 -0.3346,0 0.24881,-0.93787 1.65487,-2.66033 6.97857,-8.5489 11.57678,-20.27887 11.59169,-29.57024 0.008,-5.13111 -1.38583,-9.23021 -4.65552,-13.68911 -1.16679,-1.59116 -4.67526,-5.12328 -6.32872,-6.37139 -1.91487,-1.44544 -2.04227,-1.71805 -1.16376,-2.4903 0.38979,-0.34263 1.32669,-1.16752 2.082,-1.83307 0.75531,-0.66555 1.46145,-1.21208 1.56921,-1.2145 0.10775,-0.002 1.27435,0.88258 2.59243,1.96667 z"
           style="fill:#fecffc;fill-opacity:1;stroke-width:0.231333" />
        <path
           inkscape:connector-curvature="0"
           id="path1439"
           d="m 176.73608,178.81898 c 1.48462,0.80803 2.42065,1.89667 3.0299,3.52391 0.55394,1.4795 0.58027,2.78645 0.0898,4.46034 -0.50657,1.729 -2.5153,3.72471 -4.27501,4.24728 -2.52311,0.74928 -4.60977,0.27012 -6.55137,-1.50439 -3.81114,-3.48317 -2.56123,-9.39664 2.37661,-11.24408 1.38171,-0.51696 3.87466,-0.27518 5.33003,0.51694 z"
           style="fill:#ffffff;fill-opacity:1;stroke:#422b60;stroke-width:1.5;stroke-miterlimit:4;stroke-dasharray:none;stroke-opacity:1" />
        <path
           inkscape:connector-curvature="0"
           id="path1437"
           d="m 221.15209,178.81898 c 1.48462,0.80803 2.42066,1.89667 3.02991,3.52391 0.55393,1.4795 0.58026,2.78645 0.0898,4.46034 -0.50658,1.729 -2.51531,3.72471 -4.27501,4.24728 -2.52311,0.74928 -4.60978,0.27012 -6.55138,-1.50439 -3.81114,-3.48317 -2.56123,-9.39664 2.37662,-11.24408 1.38171,-0.51696 3.87465,-0.27518 5.33002,0.51694 z"
           style="fill:#ffffff;fill-opacity:1;stroke:#422b60;stroke-width:1.5;stroke-miterlimit:4;stroke-dasharray:none;stroke-opacity:1" />
      </g>
    </g>
  </g>
</svg>
