<?xml version="1.0" encoding="UTF-8" standalone="no"?>
<!-- Created with Inkscape (http://www.inkscape.org/) -->

<svg
   width="340.15747"
   height="340.15747"
   viewBox="0 0 90 90.000001"
   version="1.1"
   id="svg432"
   inkscape:version="1.1.2 (1:1.1+202202050950+0a00cf5339)"
   sodipodi:docname="logo.svg"
   inkscape:export-filename="/home/andre/python/live-de-python/wiki-live-de-python/docs/assets/images/favicon.png"
   inkscape:export-xdpi="96"
   inkscape:export-ydpi="96"
   xmlns:inkscape="http://www.inkscape.org/namespaces/inkscape"
   xmlns:sodipodi="http://sodipodi.sourceforge.net/DTD/sodipodi-0.dtd"
   xmlns="http://www.w3.org/2000/svg"
   xmlns:svg="http://www.w3.org/2000/svg"
   xmlns:rdf="http://www.w3.org/1999/02/22-rdf-syntax-ns#"
   xmlns:cc="http://creativecommons.org/ns#"
   xmlns:dc="http://purl.org/dc/elements/1.1/">
  <defs
     id="defs426">
    <clipPath
       clipPathUnits="userSpaceOnUse"
       id="clipPath102">
      <path
         d="M 45623.03,19116.5 H 165614.05 V 190863.72 H 45623.03 Z"
         id="path100"
         inkscape:connector-curvature="0"
         style="clip-rule:evenodd" />
    </clipPath>
  </defs>
  <sodipodi:namedview
     id="base"
     pagecolor="#ffffff"
     bordercolor="#666666"
     borderopacity="1.0"
     inkscape:pageopacity="0.0"
     inkscape:pageshadow="2"
     inkscape:zoom="0.50000001"
     inkscape:cx="-410.99999"
     inkscape:cy="-130"
     inkscape:document-units="mm"
     inkscape:current-layer="layer1"
     showgrid="false"
     inkscape:window-width="1920"
     inkscape:window-height="1016"
     inkscape:window-x="0"
     inkscape:window-y="27"
     inkscape:window-maximized="1"
     inkscape:pagecheckerboard="0"
     fit-margin-top="0"
     fit-margin-left="0"
     fit-margin-right="0"
     fit-margin-bottom="0"
     height="120mm"
     units="px" />
  <metadata
     id="metadata429">
    <rdf:RDF>
      <cc:Work
         rdf:about="">
        <dc:format>image/svg+xml</dc:format>
        <dc:type
           rdf:resource="http://purl.org/dc/dcmitype/StillImage" />
      </cc:Work>
    </rdf:RDF>
  </metadata>
  <g
     inkscape:label="Layer 1"
     inkscape:groupmode="layer"
     id="layer1"
     transform="translate(-19.769623,-64.430781)"
     style="display:inline">
    <g
       id="g47"
       transform="matrix(0.87647979,0,0,0.87647979,27.976707,10.167626)">
      <path
         inkscape:connector-curvature="0"
         id="path575"
         d="M 0.88216241,169.92928 V 159.36673 H 4.403023 7.9238837 v -1.17361 -1.17362 h 3.5208603 3.520861 v -1.17362 -1.17362 h 1.17362 1.173621 v -1.17361 -1.17362 h 2.34724 2.34724 v 1.17362 1.17361 h 1.173621 1.17362 v 2.34724 2.34723 h 1.17362 1.173621 v 1.17362 1.17361 h 3.52086 3.520861 v 1.17362 1.17362 h 5.868102 5.8681 l -8.9e-5,-2.4202 7.041813,0.073 v -1.17361 -1.17362 h 1.173618 1.173617 v -3.52085 -3.52085 h 4.694483 4.694482 v 1.17362 1.17361 h 2.347242 2.347241 v 1.17362 1.17362 h 2.347241 2.347235 v 1.17362 1.17361 h 1.173624 1.173617 v 10.56255 10.56256 H 38.438007 0.88216241 Z"
         style="display:inline;fill:#800080;stroke:none;stroke-width:0.146702"
         sodipodi:nodetypes="ccccccccccccccccccccccccccccccccccccccccccccccccccccccccccc"
         inkscape:label="cinza"
         inkscape:export-filename="/home/andre/python/live-de-python/wiki-live-de-python/docs/assets/images/favicon.png"
         inkscape:export-xdpi="96"
         inkscape:export-ydpi="96" />
      <path
         id="path579"
         style="display:inline;fill:#f7bd87;stroke:none;stroke-width:0.554464"
         d="m 150.63477,79.611328 -0.0215,9.150391 9.1875,0.06836 -0.084,-9.201172 z m 9.16601,9.21875 0.0195,9.140625 -9.25195,-0.06055 v 8.318367 l -26.28516,0.32226 c 0.0763,-5.92967 0.15039,-11.859368 0.22461,-17.789064 h -0.006 l 0.004,0.07617 c -3.05008,-0.119212 -6.10024,-0.236303 -9.15039,-0.353516 v 4.560547 l 0.002,4.558594 v 9.179689 l 8.92578,-0.23242 0.1429,8.54882 h -9.06672 -8.59376 l -0.0723,-4.34569 -0.0723,-4.34767 -9.052731,0.0977 0.0918,8.84569 -8.917968,0.0254 -0.01367,8.85742 8.888672,-0.0684 v 8.95312 h 17.740237 17.74218 v 4.43554 4.4375 h -0.0156 l -0.006,4.43555 -0.006,4.43555 h 0.0273 v 4.43555 4.4336 0.002 13.30663 13.30664 h -0.0371 l -26.57617,-0.0527 v 4.46095 4.46289 h -4.4375 -4.435544 v 4.43553 4.43555 H 84.283203 71 v 0.002 8.8711 h 4.435547 4.435547 v 4.43554 4.43555 h 8.871094 8.873046 v 8.87109 h -8.873046 v 17.74024 h 8.830078 l -0.04297,-8.86914 h 17.785154 0.043 l 17.74219,-0.002 v -26.61329 h 8.87109 v -8.87109 h 8.8711 v -8.87109 h 8.87109 v 17.74218 h -8.87109 v 8.86914 h 0.002 8.87109 l -0.0332,8.875 h 8.9043 v -8.87109 h 8.87109 v -0.004 -8.86718 -8.87305 h -4.43555 -4.43554 V 186.3457 168.60352 h 4.43554 4.43555 v 17.74218 17.74219 h 4.43555 4.43554 v 4.4375 4.43555 h 4.43555 4.43555 v 13.30664 4.43164 h 0.002 v 4.43555 4.4375 l 35.48438,0.002 v -17.7461 h 4.4375 4.43554 v -4.43554 -4.43555 h 4.43555 4.43555 l -0.002,-17.74023 H 235.0763 221.72669 l 0.0879,-8.8711 -26.23437,-0.35933 -0.37891,-52.86914 8.96094,0.0703 0.0117,-4.43164 0.0117,-4.64063 -4.35352,-0.0723 -4.35351,-0.0723 -0.14454,-17.46679 h -0.18554 l 0.16406,-8.851566 0.16602,-9.138672 -9.34571,-0.0293 -0.0801,8.873047 h -8.3164 l 0.12083,17.742191 h -17.86302 v -8.31641 l 8.87109,-0.10007 -0.2207,-18.085477 -4.42187,0.115235 z m 80.03711,88.845682 v -4.63474 -4.15821 l 4.43555,-0.1582 4.43554,-0.16016 -0.10937,-8.91797 -0.11133,-8.91601 -4.32617,-0.0723 -4.32617,-0.0723 v -8.73438 -8.73242 h -4.57422 l -4.57617,-0.002 0.27729,44.63476 z m -9.15234,-44.55857 V 115.375 115.09961 h -4.29297 -4.29883 l -0.0723,-4.32617 -0.0723,-4.32617 -8.9375,-0.10938 -8.9375,-0.10937 -0.002,4.71289 v 4.71289 l 8.90234,-0.002 -0.30664,17.64844 z m 8.87304,88.71093 v 8.8711 h 8.8711 v -8.8711 z m -8.91994,35.48633 h 0.0469 8.87304 v -8.87109 h -8.87304 z M 79.871094,221.83203 H 75.435547 71 v 4.43555 4.43554 h 4.435547 4.435547 v -4.43554 z m 70.697266,-123.921874 0.0449,-9.148437 -8.5039,-0.04883 -0.13672,9.197265 z m -61.826172,43.804684 0.002,17.88086 -0.002,0.1836 v 8.87109 8.87109 l -4.296876,-0.16015 -4.296874,-0.16211 -0.326172,9.20508 18.171875,-0.0274 -0.378907,-18.14257 v -17.37305 h 0.306641 l -0.337891,-8.78711 -4.404296,-0.17969 z m -62.097657,26.61328 -0.002,22.5918 -0.002,31.18946 4.4375,-0.17969 4.435547,-0.18164 v 4.61718 l -0.002,4.61524 4.4375,-0.17969 4.4375,-0.18164 -0.002,4.61719 v 4.61719 l 8.878906,-0.16602 8.865234,-0.16406 -0.002,-17.68946 h -8.871094 -8.871093 v -8.87304 -8.8711 h -4.435547 -4.435547 v -8.87109 -8.87109 h 8.871094 8.871093 v 4.43554 4.43555 h 4.435547 4.435547 l 0.279297,-17.70313 -4.435547,-0.16015 -4.435547,-0.1582 -0.08398,-4.43555 -0.07617,-4.16211 z m 230.658199,0 -0.37332,53.36784 9.51981,0.097 -0.15295,-53.38782 z M 71,239.57422 v 4.43555 4.43554 h 4.435547 4.435547 v -8.87109 h -4.435547 z m 8.871094,8.87109 v 8.87305 h 8.871094 v -8.87305 z m 0,8.87305 h -4.41211 -4.412109 l -0.162109,4.29687 0.07031,4.57422 h 4.458984 4.457032 v -4.43554 z m 79.816406,-9.11524 0.0254,9.11329 h 8.87305 l 0.002,-9.04688 z m 35.51367,9.11329 v 8.87304 l -9.17771,-0.11728 0.0331,8.98637 h -8.59957 v 8.8711 H 150.8418 v -8.8711 h -17.82618 l 0.0449,-8.81445 -35.443362,-0.0547 v 4.43555 4.43555 h 4.435542 4.43555 v 4.43554 4.43555 h 8.8711 v 8.87305 h -4.43555 -4.43555 v 4.43554 4.43555 h 13.30664 13.3086 v 17.74219 h 17.74218 v -4.43555 l -0.002,-0.002 v -4.43555 h 8.87109 v -17.74219 h 8.8711 v 17.74219 h 8.87109 v 8.87305 h 17.74414 v -0.002 -17.74219 h 17.74219 v -8.8711 h -8.87109 v -8.87109 h 8.87109 v 8.87109 h 8.87109 v -8.82421 l -8.87109,-0.0469 -0.0469,-8.87109 h 8.91797 v -8.8711 h -8.87109 v -8.87109 h -0.10742 l -17.63469,-0.002 z m -97.583982,17.74414 h -4.435547 -4.435547 v 4.43554 4.43555 h 4.435547 4.435547 v -4.43555 z m 62.095702,-8.8711 v 8.8711 h 8.87305 v -8.8711 z m -70.970702,88.71289 v 8.8711 h 8.871093 v 8.87304 h 26.615239 v 8.8711 h 44.35742 l -0.002,-8.8711 h 0.002 v -0.27539 l -44.35696,0.27577 -0.0473,-8.84998 -26.567083,-0.0214 -0.0462,-8.78911 z m 97.585932,0.002 v 8.87109 h -8.7832 l -0.0734,8.7105 17.72766,0.16059 v -8.87304 h 8.87109 v -8.86914 z"
         sodipodi:nodetypes="ccccccccccccccccccccccccccccccccccccccccccccccccccccccccccccccccccccccccccccccccccccccccccccccccccccccccccccccccccccccccccccccccccccccccccccccccccccccccccccccccccccccccccccccccccccccccccccccccccccccccccccccccccccccccccccccccccccccccccccccccccccccccccccccccccccccccccccccccccccccccccccccccccccccccccccccccccccccccccccccccccccccccccccccccccccccccccccccccccccccccccccccc"
         inkscape:label="marrom4"
         transform="matrix(0.26458333,0,0,0.26458333,0.874613,63.117814)" />
      <path
         id="path577"
         style="display:inline;fill:#e79e6f;stroke:none;stroke-width:0.554464"
         inkscape:label="marrom3"
         d="m 97.617188,141.99023 v 0.0859 l -0.0332,-0.002 0.337891,8.78711 h 17.435541 17.71485 l 0.006,-4.43555 0.006,-4.43555 h -22.1621 z m 97.593752,0 -0.01,8.8711 h 17.74219 17.72852 l 0.008,-8.8711 H 212.9668 Z M 71,159.45508 v 22.31836 22.31445 h 13.283203 13.330078 v -4.43555 -4.43554 h 4.435549 4.4375 v -4.46289 -4.46094 l -26.664064,0.11133 0.128906,-26.76953 -4.47461,-0.0899 z m 97.58594,9.14844 v 17.74218 17.74219 h 8.87109 V 186.3457 168.60352 h -4.43555 z m 8.87109,35.48437 v 17.74023 l 0.004,0.004 8.86905,-0.004 v 8.83008 l 8.86923,0.0411 v -17.73828 h -8.8711 v -8.87305 z m 53.50586,-26.33594 v 4.29883 4.29688 h -4.57422 l -4.57422,-0.002 -0.0879,8.8711 h 13.34961 l 13.35166,9e-5 0.28115,-17.46298 z m -195.449218,8.59571 v 8.87109 8.87109 h 4.435547 4.435547 v 8.8711 8.87304 h 8.871093 8.871094 v -26.61523 h -4.435547 -4.435547 v -4.43555 -4.43554 H 44.384766 Z M 150.8418,195.2168 v 4.43554 4.43555 h -4.43555 -4.43555 v 4.43555 4.43554 h -4.43554 -4.43555 v 13.3086 4.43164 h 4.4375 4.43555 v -4.43555 -4.43555 h 8.86914 v -4.43164 -4.4375 h 4.43554 4.43555 v -8.87109 -8.87109 h -4.43555 z m 17.74414,26.61523 v 8.87109 h -8.9043 v 0.002 l 0.002,8.87109 h 17.77344 v -0.004 -7.98047 -9.75977 z m -71.056643,17.74219 0.08594,17.74023 9.160153,0.15821 -0.0117,-8.74805 8.70313,-0.11914 -0.10938,-9.03125 h -0.043 z m 106.542973,0 -0.13868,8.9668 17.72657,-0.13477 0.0859,8.9082 h 8.99024 l -0.0508,-17.74023 z m -53.46289,8.5039 0.0645,9.91211 -17.57031,-0.11718 -0.0879,17.18554 h 17.82618 v 8.8711 h 26.61523 v -8.8711 h 8.87109 l -0.27539,-16.91015 -8.64843,-0.0293 0.0547,-9.67187 h -8.87109 -0.002 v 8.86914 h -8.87305 l -0.0254,-9.22071 z m -26.10157,9.17774 -9.14843,0.0625 v 8.87109 h 9.02343 z m 35.20508,8.93359 h 8.87305 v 8.8711 h -8.87305 z m -79.814452,26.61328 0.09961,17.7461 0.150391,26.61133 h -0.277344 v 4.43554 4.43555 h 4.435547 4.435547 l 0.208984,9.06836 8.617187,-0.11328 0.322266,8.51172 13.144534,0.15039 13.14648,0.14844 0.16211,4.2871 0.16211,4.28711 52.9043,0.0488 0.13476,-8.64453 h 4.39063 4.39257 v -4.43555 -4.43554 h 8.8711 8.87109 l -0.0684,-35.48828 h -4.32812 -4.47266 v 0.002 4.43359 4.43555 h -31.05078 -31.05078 v -4.43359 -4.43555 h -8.87109 -8.8711 v -4.4375 -4.43555 h -8.87109 -8.871095 v -4.43554 -4.43555 h -4.435546 -4.4375 v -4.43555 -4.43555 h -4.435547 z"
         transform="matrix(0.26458333,0,0,0.26458333,0.874613,63.117814)"
         sodipodi:nodetypes="cccccccccccccccccccccccccccccccccccccccccccccccccccccccccccccccccccccccccccccccccccccccccccccccccccccccccccccccccccccccccccccccccccccccccccccccccccccccccccccccccccccccccccccccccccccccccccccccccccccccc" />
      <path
         id="path573"
         style="display:inline;fill:#a26e46;stroke:none;stroke-width:0.554464"
         inkscape:label="marrom2"
         d="m 97.617188,133.11719 v 0.002 8.87109 h 13.304692 22.17773 v -4.4375 -4.43554 h -17.74219 z m 97.583982,0 v 4.43554 4.4375 h 17.76563 17.71289 l 0.006,-8.87304 z m 53.31445,70.9707 -0.0859,8.86914 h -8.8711 v 8.87109 h 8.8711 v 8.8711 h -8.8711 v -8.8711 h -8.87304 v 26.61524 h 8.87304 v 8.87109 l -26.61523,0.004 v 8.87109 h 8.87109 v 8.8711 h -8.91797 l 0.0469,8.871 8.87112,0.047 v 8.82421 h -8.87109 v 4.43555 4.43555 l 7.90234,-0.0645 9.61946,0.0293 0.22253,-17.98242 8.91352,-0.0128 -0.0422,-17.73138 8.89958,-0.13045 -0.0558,-17.15471 8.67383,-0.0762 0.125,-44.41797 z m -35.57226,97.58594 h -8.87109 -8.8711 v 8.87109 8.8711 h 4.47266 4.47461 l -0.0871,-9.05469 8.80577,-0.16004 z m 0,-8.8711 v -8.87109 h -8.87109 v 8.87109 z M 62.128906,204.08984 v 4.43555 30.99805 h 0.01563 l -0.231066,26.76991 9.041611,-0.1039 0.0918,-8.87109 H 79.8711 v -8.87305 H 71 v -8.87109 h 8.871094 v 8.87109 h 8.871094 v 8.87305 h -8.871094 v 8.87109 h -8.916016 l 0.343499,17.74219 h 8.572517 v 8.87109 h 8.871094 v 8.8711 h 8.873046 v 8.87109 h 17.742186 v 8.87305 h 17.74219 v 8.86914 h 62.10156 v -4.43555 -4.43359 h -17.74414 v -8.87305 h -8.87109 v -17.74219 h -4.43555 -4.43555 v 17.74219 h -8.87109 l 0.002,8.87305 h -17.74218 v -17.74219 h -26.61524 v -8.87109 h 8.8711 v -8.87305 h -8.8711 v -8.87109 h -8.871092 v 8.87109 h -8.871094 v -8.87109 h 8.871094 v -8.8711 h 17.742192 v -8.87109 l -17.744146,-0.004 v -8.87109 h -4.435546 -4.4375 v -8.86914 -8.8711 h 4.4375 4.435546 v -4.43554 -4.43555 h -8.873046 -8.871094 v 4.43555 4.43554 H 75.435547 71 v -4.43554 -4.43555 h 4.435547 4.435547 v -4.43555 -4.43554 H 75.435547 71 v -8.8711 h -4.455078 z m 53.230474,53.22852 9.14843,-0.063 -0.12464,8.93414 8.87634,0.0547 0.10378,-8.37109 17.31054,0.11718 0.16992,-18.41406 h -8.87109 v -8.87109 h -8.87305 v 8.86719 h -17.74219 z m 26.61328,-26.61328 h 17.70898 l 0.0332,-8.87696 h -17.74218 z m 35.48437,-8.87696 v 8.8711 l 8.87305,-0.041 v -4.39453 -4.43555 h -4.4375 z m 8.87305,8.8301 v 4.45897 4.45898 h -4.17578 l -4.69727,-0.004 0.002,8.875 v 4.43554 l -0.0547,5.23633 8.64843,0.0293 v 3.58008 l -0.0293,4.34375 3.21679,0.0605 5.96094,0.0566 v -4.43554 -4.4375 h 8.59571 l 0.27539,-17.74414 h -4.43555 -4.43555 v -4.4375 -4.43555 z m -17.74414,8.91405 -8.90235,0.004 0.004,8.8711 h 8.90039 z"
         transform="matrix(0.26458333,0,0,0.26458333,0.874613,63.117814)"
         sodipodi:nodetypes="cccccccccccccccccccccccccccccccccccccccccccccccccccccccccccccccccccccccccccccccccccccccccccccccccccccccccccccccccccccccccccccccccccccccccccccccccccccccccccccccccccccccccccccccccccccccccccccccccccccccc" />
      <path
         id="path571"
         style="display:inline;fill:#795b44;stroke:none;stroke-width:0.554464"
         inkscape:label="marrom1"
         d="m 141.97266,0.046875 v 8.8710938 8.8710932 h 4.43554 4.43555 v 4.435547 4.435547 H 137.57812 124.3125 L 124.31445,8.8984375 97.658203,9.046875 71.072266,9.1972656 70.945312,26.660156 h -4.386718 -4.388672 l 0.04687,-8.767578 -35.294922,0.175781 v 8.732422 8.732422 h 8.591797 v 4.435547 4.435547 H 26.92187 v 8.732422 8.734375 l -4.4375,0.277344 -4.435547,0.277343 v 4.158203 4.158204 l -4.435547,0.277343 -4.4355466,0.277344 -0.1484375,13.167969 -0.048828,4.296875 h 8.7910151 8.871094 v 8.871093 8.871098 L 9.1777344,106.7832 v 8.59375 8.59375 l -4.4355469,0.27735 -4.43554688,0.27734 -0.15039062,8.5918 h 8.7441406 8.8710934 v 4.4375 4.43554 H 9.1777344 v 4.29688 4.29883 l -9.18359378,0.0566 0.11523438,17.96094 h 17.662109 v -4.43555 -4.43555 h 4.435547 4.435547 l 0.002,8.5957 35.484375,0.35938 v -8.91211 -8.91406 h 8.847656 8.847657 l 0.162109,4.29687 0.16211,4.51368 8.59375,0.10742 0.002,-0.1836 -0.002,-17.88086 4.4375,0.17969 4.4375,0.18164 v -8.95703 -8.95508 l -8.888672,0.0684 0.01367,-8.85742 h -4.435547 -4.435547 v -8.87109 -8.871098 h 8.871094 8.873046 v -4.435546 -4.435547 h 4.435551 4.43555 v -8.873047 -8.871094 h 4.43555 4.43554 v 8.871094 h 8.78711 l 0.18164,4.474609 0.17578,4.398438 h 0.006 l -0.11133,8.894531 -0.11328,8.89453 13.14258,-0.16211 13.14258,-0.16015 v -4.15821 -4.160154 h -4.29883 -4.29687 V 71.017578 h 8.82812 8.83008 l 0.16992,17.8125 4.42188,-0.117187 4.42187,-0.115235 0.10937,8.933594 0.11133,9.15234 -8.8711,0.0996 v 8.31641 h 17.86329 l -0.12109,-17.742188 h 8.3164 l 0.23046,-17.46875 h 8.89453 8.89454 V 93.197256 106.5039 h -4.46288 -4.2754 l 0.14454,17.46679 4.35351,0.0723 4.35352,0.0723 -0.0117,4.64063 -0.0117,4.64062 8.50586,-0.0957 0.1543,-9.23437 0.15234,-8.77539 -4.45117,0.18164 -4.45117,0.18164 v -4.71289 l 0.002,-4.71289 8.9375,0.10937 8.9375,0.10938 0.0723,4.32617 0.0723,4.32617 h 4.29883 4.29297 V 97.632812 h 4.42187 4.41992 l 0.3086,52.953128 8.65234,0.1446 0.11133,8.91601 0.10902,8.9179 -8.87074,0.31843 -3.5e-4,8.79288 8.87108,0.0781 -0.19335,26.33402 8.68608,0.0449 0.10138,-35.80465 8.99319,0.0769 -0.12014,17.94254 h 8.86719 v 8.87109 h 17.74609 l -0.002,-8.87109 h -8.87109 v -8.87305 h 8.87109 v -9.14649 h 4.29687 4.29883 l 0.15235,-8.73242 0.15234,-8.73242 -8.90039,-0.002 0.0137,8.67773 h -8.88476 v -8.67773 h 8.87109 v -8.8711 h 8.95508 l -0.19336,-17.74218 v -0.002 h -4.28321 -4.47851 v -8.87109 -8.87109 h 8.89453 8.84961 v -8.955082 l -8.87305,0.361328 v -9.052734 l 0.002,-9.050781 -4.4375,0.179687 -4.4375,0.181641 0.002,-4.59375 v -4.59375 l -13.30664,0.158203 -13.30859,0.158203 0.002,-22.359375 V 26.578125 l -8.80078,0.357422 -0.16016,8.597656 h -17.57031 l 0.004,-17.830078 -8.96093,0.365234 0.002,-9.1679684 -31.05078,0.1484375 -31.04883,0.1464844 V 4.6210938 0.046875 h -17.74414 z m 17.82812,88.783203 -9.1875,-0.06836 -0.0449,9.148437 9.25195,0.06055 z m -62.185546,8.802734 -0.04687,8.871098 9.052726,-0.0977 0.1446,8.69336 h 17.1875 l 0.3302,-8.54879 -8.9259,0.23238 v -9.179684 z m -0.04687,8.871098 h -8.826171 v 8.87109 l 8.917968,-0.0254 z m -97.53906212,33.91992 -0.02734375,1.5664 H 0.02929688 Z M 186.33008,230.6582 l -8.87305,0.041 v 8.87305 l 8.87305,0.004 z m -44.35742,0.0469 v 8.87109 h 8.87109 l -0.125,8.50195 8.96875,0.0742 -0.006,-17.44726 z m 26.61523,8.87109 v 4.43555 4.43555 h 4.43555 4.43554 v -4.43555 -4.43555 h -4.43554 z m 53.07227,8.83008 -8.93164,0.0684 -8.93164,0.0684 v 4.38672 4.38672 l 9.03906,0.002 9.03711,0.002 -0.10743,-4.45703 z m -106.37305,0.27344 -8.52344,0.0449 -0.0449,8.49805 8.64063,0.0957 z"
         transform="matrix(0.26458333,0,0,0.26458333,0.874613,63.117814)"
         sodipodi:nodetypes="ccccccccccccccccccccccccccccccccccccccccccccccccccccccccccccccccccccccccccccccccccccccccccccccccccccccccccccccccccccccccccccccccccccccccccccccccccccccccccccccccccccccccccccccccccccccccccccccccccccccccccccccccccccccccccccccccccccccccccccccccccccccccccccccccccccccc" />
      <path
         id="path17371"
         style="display:inline;fill:#544334;stroke:none;stroke-width:0.554464"
         inkscape:label="marrom0"
         d="m 62.130859,0 0.03906,26.660156 H 70.94531 L 71.250543,0.00976563 Z m 70.968751,0.046875 0.004,18.019531 -9.15235,-0.353515 0.36133,8.947265 h 26.53125 v -8.871094 h -8.87109 V 0.046875 Z m 115.33008,17.695313 0.002,9.195312 -9.15039,-0.353516 0.36133,8.949219 h 17.57031 l -0.1895,-17.466797 z M 17.771484,35.533203 v 8.871094 h 17.742188 v -8.871094 z m 88.714846,35.484375 v 17.744141 h -8.871096 c 0,2.957031 0,5.914062 0,8.871093 l 17.742186,-0.0293 c -0.002,-3.039713 -0.002,-6.079427 -0.002,-9.119141 3.05018,0.116465 6.10028,0.235052 9.15039,0.353516 -0.11902,-2.983131 -0.24024,-5.966172 -0.36133,-8.949219 h -8.78711 c 0,-2.957031 0,-5.914063 0,-8.871094 -2.95701,-2e-6 -5.91403,10e-7 -8.87104,4e-6 z m -8.871096,26.615234 h -8.873046 -8.871094 v 8.871098 8.87109 h 4.435547 4.435547 v -4.43555 -4.43554 h 4.412109 4.414062 z m 44.357426,-26.615234 0.39062,17.396484 8.20313,0.07031 0.31445,-8.873047 9.11133,0.353516 -0.36133,-8.947266 z m 44.31054,8.871094 -0.15029,8.59571 4.91006,0.158196 4.43555,0.15625 -0.16602,8.853516 -0.16406,8.851566 h 4.46094 4.46289 V 93.197266 79.888672 h -8.89454 z M 8.9003906,88.761719 v 4.476562 4.478516 l 4.4375004,-0.181641 4.435547,-0.179687 v 4.574221 l -0.002,4.57422 h 4.435547 4.435547 V 97.632812 88.761719 H 17.771484 Z M 230.68555,97.632812 V 115.375 133.11719 l 4.57617,0.002 h 4.57422 l -0.1543,-17.74414 -0.1543,-17.742188 h -4.41992 z m 62.10156,8.871098 v 17.74218 h 4.47851 4.47657 l 0.0645,-8.83398 8.83398,-0.31445 -0.0645,-8.59375 z m 17.78711,26.53125 -9.19336,0.041 0.0606,8.91406 h -8.6543 v 8.8711 h 17.92187 z m -17.78711,17.82617 h -8.87109 l 3.3e-4,8.6777 h 8.88476 z M 0.02929688,133.11719 v 4.4375 4.43554 H 8.9003906 17.771484 v -4.43554 -4.4375 H 8.9003906 Z M 62.128906,150.86133 v 8.91406 8.91211 l -4.380859,-0.17969 -4.378906,-0.18164 0.08203,4.43555 0.08398,4.43555 4.435547,0.1582 4.435547,0.16015 -0.158203,13.28711 -0.158203,13.28711 H 66.544922 71 v -22.3164 -22.31836 l 4.476562,0.0898 4.47461,0.0899 0.09961,8.78125 0.09766,8.7832 4.296874,0.16211 4.296876,0.16015 v -8.87109 -8.87109 l -4.296876,-0.16211 -4.296874,-0.16211 -0.16211,-4.29688 -0.162109,-4.29687 h -8.847657 z m 35.486328,0 v 17.37305 l 0.378907,17.75195 13.167969,0.23242 12.78906,-0.14844 v -8.5957 -8.59375 l -4.29687,-0.16211 -2.95118,-0.11133 h -1.38281 v -4.43554 -4.4375 h 0.0371 v -0.002 h 8.8711 8.87109 v -4.43554 -4.43555 h -17.74219 z m 97.585936,0 v 17.37305 l 0.37891,17.75195 13.16797,0.23242 12.78906,-0.14844 v -8.5957 -8.59375 l -4.29688,-0.16211 -3.10546,-0.11719 h -1.18946 v -0.0449 h -0.002 v -4.41211 -4.41211 h 0.002 v -0.004 h 8.8711 8.86914 v -4.43164 -4.43555 h -17.74219 z m -177.429686,8.87109 v 8.8711 H 0.02929688 v 8.95507 l 8.87304692,-0.36132 v 18.29882 l -8.87304692,-0.36132 v 17.82617 17.82812 l 8.87109372,8.82422 26.6152344,-0.31445 0.002,18.29687 -8.875,-0.36132 v 8.99414 l 26.615234,-0.31641 v 9.19531 l 8.59961,-0.004 0.287109,-35.58008 -17.759765,0.33008 0.002,-9.23438 -8.875,0.36133 0.002,-9.23242 -8.873047,0.36133 0.002,-62.37696 z m 266.144536,17.74219 v 8.87305 h 8.87109 v -8.87305 z m -17.77344,8.87305 0.30664,35.44531 -9.51981,-0.097 0.14481,17.93853 26.56445,-0.33566 v -8.31641 l 8.8711,-0.55469 v -17.18945 l -8.8711,-0.55469 v -8.3164 l 8.8711,-0.55469 0.32421,-8.59375 h -17.79101 v -8.87109 z"
         transform="matrix(0.26458333,0,0,0.26458333,0.874613,63.117814)"
         sodipodi:nodetypes="ccccccccccccccccccccccccccccccccccccccccccccccccccccccccccccccccccccccccccccccccccccccccccccccccccccccccccccccccccccccccccccccccccccccccccccccccccccccccccccccccccccccccccccccccccccccccccccccccccccccccccccccccccccccccccccccccccccccccccc" />
      <path
         id="path1651"
         style="display:inline;fill:#ffffff;stroke:none;stroke-width:0.554464"
         d="m 216.25,398.2832 v 4.4375 4.43555 h 4.43555 4.43554 v 8.87109 8.8711 h 4.43555 4.43555 V 411.5918 398.2832 h -8.8711 z m -97.625,0.006 v 4.4375 4.43555 h 4.43555 4.43554 v 8.87109 8.8711 h 4.43555 4.43555 V 411.5978 398.2892 h -8.8711 z"
         transform="scale(0.26458333)"
         inkscape:label="branco" />
      <g
         id="g1179"
         transform="matrix(1.2743,0,0,1.2743,108.20243,-22.483497)">
        <path
           style="fill:#040302;stroke-width:0.0969959"
           d="m -63.66576,107.7567 -2.376395,-0.0511 -0.04849,-0.82446 -0.04849,-0.82447 -0.824459,-0.0485 -0.824465,-0.0485 -0.028,-0.84871 -0.02805,-0.84872 h -0.820685 -0.82069 v -0.86203 -0.86204 l -0.897209,0.0133 -0.89721,0.0133 -2.79e-4,-0.87296 -2.8e-4,-0.87296 -0.0744,-0.11507 -0.0744,-0.11507 -0.167826,0.007 -0.167837,0.007 -4.094076,-0.0761 -4.094076,-0.0761 -0.02827,0.86338 -0.02816,0.86336 -0.703221,0.0285 -0.703242,0.0285 v -0.92572 -0.9257 h 0.664813 0.664808 l 0.01972,-0.745757 0.01972,-0.74575 0.05537,-0.0896 0.05537,-0.0896 5.443558,0.0621 5.443557,0.0621 2.308517,0.097 2.308516,0.097 0.09213,-0.0569 0.09212,-0.0569 v -0.33492 -0.33493 l 3.661589,0.0254 3.661586,0.0254 0.02927,0.40085 0.02927,0.40085 4.432527,0.0593 4.43253,0.0594 2.152856,0.0556 2.152856,0.0556 0.02955,-0.51584 0.02954,-0.51584 h 3.637344 3.637335 l 0.04849,0.53348 0.0485,0.53348 3.023122,0.0485 3.023121,0.0485 0.0685,0.0686 0.06849,0.0686 -0.07101,2.272577 -0.07102,2.27257 -0.353217,0.0584 -0.353226,0.0584 -0.460727,0.001 -0.460737,0.001 v 0.83488 0.83488 l -0.827715,-0.0444 -0.82772,-0.0444 -0.068,0.10672 -0.06802,0.10671 -0.01361,0.0727 -0.01361,0.0727 -0.01212,0.6939 -0.01213,0.69389 -4.243554,-0.0641 -4.243563,-0.0641 -1.551666,-0.009 -1.551657,-0.009 -0.178713,-0.0956 -0.178723,-0.0957 0.03296,-0.74365 0.03296,-0.74364 -0.193995,-0.0191 -0.193996,-0.0191 -0.654713,-0.0614 -0.654723,-0.0614 v -0.81673 -0.81674 h -0.824467 -0.824457 v -1.55193 -1.55194 h -0.87297 -0.87296 v 1.53981 1.53981 l -0.0622,0.31099 -0.0622,0.31099 -0.757604,-0.0287 -0.757605,-0.0287 -0.0643,0.0643 -0.06431,0.0643 -0.02287,0.70825 -0.02287,0.70824 -0.01448,0.0727 -0.01448,0.0727 h -0.824466 -0.824464 v 0.82445 0.82447 l -3.564588,-0.0216 -3.564589,-0.0216 z m 4.441194,-2.69423 0.02789,-0.89721 h -0.824327 -0.824327 l -0.02803,-0.84871 -0.02802,-0.84872 -0.848718,-0.028 -0.848709,-0.028 v -0.86918 -0.86919 h -0.862585 -0.862579 l -0.05888,0.15343 -0.05888,0.15342 v 0.69529 0.69529 l -0.776195,-0.0316 -0.776195,-0.0316 v -0.81523 -0.81523 l -0.218239,-0.0465 -0.218233,-0.0465 -0.678976,0.0204 -0.678965,0.0204 -0.02789,0.89721 -0.02789,0.89721 h 0.828114 0.828097 v 0.87296 0.87296 h 0.87296 0.872965 v 0.87661 0.87659 l 0.897209,-0.0279 0.897204,-0.0279 0.02744,-0.82447 0.02745,-0.82446 0.772776,0.0316 0.772765,0.0316 v 0.80091 0.80091 l 0.06815,0.0682 0.06815,0.0682 0.829059,-0.0277 0.829123,-0.0277 z m -4.610938,-0.96661 -0.509221,-0.0377 v -0.77089 -0.7709 h 0.828379 0.828389 l -0.02817,0.80022 -0.02817,0.80021 -0.290993,0.008 -0.290984,0.008 -0.509231,-0.0378 z m 21.719376,-0.10035 0.01659,-0.55772 0.02159,-0.14549 0.0216,-0.1455 0.01031,-0.16974 0.01031,-0.16974 h 0.775963 0.775972 v 0.87296 0.87296 h 0.925099 0.925098 l -0.02789,-0.89721 -0.02789,-0.89721 -0.824466,-0.0276 -0.824458,-0.0276 v -0.8454 -0.8454 l -0.897212,-0.0279 -0.897212,-0.0279 v 0.88052 0.88052 l -0.800216,-0.0282 -0.800214,-0.0282 -0.02807,-0.8523 -0.02808,-0.8523 -0.893382,0.0278 -0.893374,0.0278 v 0.87297 0.87296 l 0.85477,0.0281 0.85477,0.0281 -0.02155,0.79635 -0.02156,0.79635 0.524718,0.0569 0.524716,0.057 0.36374,0.0158 0.36373,0.0158 z"
           id="path122"
           sodipodi:nodetypes="ccccccccccccccccccccccccccccccccccccccccccccccccccccccccccccccccccccccccccccccccccccccccccccccccccccccccccccccccccccccccccccccccccccccccccccccccccccccccccccccccccccccccccccccccccccccccccccccccccccccccccccccccccccc" />
        <path
           style="fill:#ffffff;stroke-width:1.25"
           d="m -233.63844,161.7625 c -0.13011,-0.13063 -0.23656,-1.60709 -0.23656,-3.28104 v -3.04354 l -2.9375,-0.12091 c -1.61562,-0.0665 -3.02187,-0.074 -3.125,-0.0167 -0.10312,0.0573 -0.1875,1.43153 -0.1875,3.05383 v 2.94963 l -1.53667,0.16062 c -0.84517,0.0883 -2.30767,0.16061 -3.25,0.16061 h -1.71333 v -3.25 -3.25 h -3.375 -3.375 v -3.375 -3.375 h -3.15017 -3.15018 l 0.17956,-3.1875 c 0.0988,-1.75313 0.19984,-3.21163 0.22462,-3.24112 0.12962,-0.1542 5.84765,-0.13087 6.09969,0.0249 0.20162,0.12461 0.29648,1.12985 0.29648,3.14174 0,2.46714 0.0657,2.9837 0.39545,3.11024 0.21749,0.0835 1.62374,0.15175 3.125,0.15175 h 2.72955 v -2.72955 c 0,-1.50126 0.0683,-2.90751 0.15175,-3.125 0.12708,-0.33116 0.65542,-0.39545 3.25,-0.39545 h 3.09825 v 3.25 3.25 l 1.1875,0.001 c 0.65313,8.2e-4 2.10631,0.073 3.2293,0.16046 l 2.0418,0.15896 0.17778,3.21454 0.17779,3.21454 h 3.1296 3.1296 l -0.16168,1.91272 c -0.0889,1.05199 -0.16169,2.50788 -0.16169,3.2353 v 1.32258 l -3.01344,0.0772 c -1.68427,0.0431 -3.11778,-0.0276 -3.25,-0.1603 z m -6.64949,-8.325 c 0.0877,-0.92813 0.16018,-2.33438 0.16115,-3.125 l 0.002,-1.4375 h -3.25 -3.25 v 2.98563 2.98562 l 1.0625,0.0957 c 0.58438,0.0526 1.97436,0.11535 3.08885,0.13937 l 2.02635,0.0437 z"
           id="path599"
           transform="matrix(0.26458333,0,0,0.26458333,0.874613,63.117814)" />
        <path
           style="fill:#ffffff;stroke-width:1.25"
           d="m -233.63844,161.7625 c -0.13011,-0.13063 -0.23656,-1.60709 -0.23656,-3.28104 v -3.04354 l -2.9375,-0.12091 c -1.61562,-0.0665 -3.02187,-0.074 -3.125,-0.0167 -0.10312,0.0573 -0.1875,1.43153 -0.1875,3.05383 v 2.94963 l -1.53667,0.16062 c -0.84517,0.0883 -2.30767,0.16061 -3.25,0.16061 h -1.71333 v -3.25 -3.25 h -3.375 -3.375 v -3.375 -3.375 h -3.15507 -3.15507 l 0.18119,-3.1875 c 0.0997,-1.75313 0.20294,-3.21163 0.22952,-3.24112 0.13898,-0.15419 5.85088,-0.1309 6.10295,0.0249 0.20162,0.12461 0.29648,1.12985 0.29648,3.14174 0,2.46714 0.0657,2.9837 0.39545,3.11024 0.21749,0.0835 1.62374,0.15175 3.125,0.15175 h 2.72955 v -2.72955 c 0,-1.50126 0.0683,-2.90751 0.15175,-3.125 0.12708,-0.33116 0.65542,-0.39545 3.25,-0.39545 h 3.09825 v 3.25 3.25 l 1.1875,0.001 c 0.65313,8.2e-4 2.10631,0.073 3.2293,0.16046 l 2.0418,0.15896 0.17778,3.21454 0.17779,3.21454 h 3.1296 3.1296 l -0.16168,1.91272 c -0.0889,1.05199 -0.16169,2.50788 -0.16169,3.2353 v 1.32258 l -3.01344,0.0772 c -1.68427,0.0431 -3.11778,-0.0276 -3.25,-0.1603 z m -6.64949,-8.325 c 0.0877,-0.92813 0.16018,-2.33438 0.16115,-3.125 l 0.002,-1.4375 h -3.25 -3.25 v 2.98563 2.98562 l 1.0625,0.0957 c 0.58438,0.0526 1.97436,0.11535 3.08885,0.13937 l 2.02635,0.0437 z"
           id="path638"
           transform="matrix(0.26458333,0,0,0.26458333,0.874613,63.117814)" />
        <path
           style="fill:#ffffff;stroke-width:1.25"
           d="m -233.63844,161.7625 c -0.13011,-0.13063 -0.23656,-1.60911 -0.23656,-3.28552 v -3.04802 l -2.9375,-0.10789 c -1.61562,-0.0593 -3.02187,-0.0648 -3.125,-0.0122 -0.10312,0.0526 -0.1875,1.423 -0.1875,3.0453 v 2.94963 l -1.53667,0.16062 c -0.84517,0.0883 -2.30767,0.16061 -3.25,0.16061 h -1.71333 v -3.25 -3.25 h -3.375 -3.375 v -3.375 -3.375 h -3.15507 -3.15507 l 0.18119,-3.1875 c 0.0997,-1.75313 0.20294,-3.21163 0.22952,-3.24112 0.13898,-0.15419 5.85088,-0.1309 6.10295,0.0249 0.20162,0.12461 0.29648,1.12985 0.29648,3.14174 0,2.46714 0.0657,2.9837 0.39545,3.11024 0.21749,0.0835 1.62374,0.15175 3.125,0.15175 h 2.72955 v -2.72955 c 0,-1.50126 0.0683,-2.90751 0.15175,-3.125 0.12708,-0.33116 0.65542,-0.39545 3.25,-0.39545 h 3.09825 v 3.25 3.25 l 1.1875,10e-4 c 0.65313,8.2e-4 2.10631,0.073 3.2293,0.16046 l 2.0418,0.15896 0.17778,3.21454 0.17779,3.21454 h 3.1296 3.1296 l -0.16168,1.91272 c -0.0889,1.05199 -0.16169,2.50788 -0.16169,3.2353 v 1.32258 l -3.01344,0.0772 c -1.68427,0.0431 -3.11778,-0.0276 -3.25,-0.1603 z m -6.64949,-8.325 c 0.0877,-0.92813 0.16018,-2.33438 0.16115,-3.125 l 0.002,-1.4375 h -3.25 -3.25 v 2.9863 2.9863 l 1.1875,0.0936 c 0.65313,0.0515 2.04311,0.11391 3.08885,0.1387 l 1.90135,0.0451 z"
           id="path677"
           transform="matrix(0.26458333,0,0,0.26458333,0.874613,63.117814)" />
        <path
           style="fill:#ffffff;stroke-width:1.25"
           d="m -233.63844,161.7625 c -0.13011,-0.13063 -0.23656,-1.61157 -0.23656,-3.29099 v -3.05348 l -2.9375,-0.084 c -1.77033,-0.0506 -3.01048,0.0153 -3.12117,0.16599 -0.10102,0.1375 -0.1854,1.4996 -0.1875,3.02689 l -0.004,2.77688 -1.53667,0.16062 c -0.84517,0.0883 -2.30767,0.16061 -3.25,0.16061 h -1.71333 v -3.25 -3.25 h -3.375 -3.375 v -3.375 -3.375 h -3.15507 -3.15507 l 0.18119,-3.1875 c 0.0997,-1.75313 0.20294,-3.21163 0.22952,-3.24112 0.13898,-0.15419 5.85088,-0.1309 6.10295,0.0249 0.20162,0.12461 0.29648,1.12985 0.29648,3.14174 0,2.46714 0.0657,2.9837 0.39545,3.11024 0.21749,0.0835 1.62374,0.15175 3.125,0.15175 h 2.72955 v -2.72955 c 0,-1.50126 0.0683,-2.90751 0.15175,-3.125 0.12708,-0.33116 0.65542,-0.39545 3.25,-0.39545 h 3.09825 v 3.2119 3.2119 l 3.1732,0.16964 c 1.74527,0.0933 3.2009,0.19733 3.23475,0.23117 0.0338,0.0339 0.14109,1.4934 0.23832,3.24346 l 0.17679,3.18193 h 3.12553 3.12552 l -0.16056,2.0625 c -0.0883,1.13437 -0.16123,2.59026 -0.16205,3.2353 l -0.001,1.1728 -3.01344,0.0772 c -1.68428,0.0431 -3.11778,-0.0276 -3.25,-0.1603 z m -6.64824,-8.55022 c 0.0889,-1.052 0.16168,-2.45825 0.16168,-3.125 V 148.875 h -3.25 -3.25 v 2.9863 2.9863 l 1.1875,0.0936 c 0.65313,0.0515 2.04287,0.11391 3.08832,0.1387 l 1.90081,0.0451 z"
           id="path716"
           transform="matrix(0.26458333,0,0,0.26458333,0.874613,63.117814)" />
        <path
           style="fill:#ffffff;stroke-width:1.25"
           d="m -233.63844,161.7625 c -0.13011,-0.13063 -0.23656,-1.62471 -0.23656,-3.32019 v -3.0827 l -3.0625,0.0702 -3.0625,0.0702 -0.0701,2.90358 -0.0701,2.90358 -1.30486,0.15675 c -0.71767,0.0862 -2.17673,0.15772 -3.24236,0.15892 l -1.9375,0.002 v -3.25 -3.25 h -3.375 -3.375 v -3.375 -3.375 h -3.15507 -3.15507 l 0.18119,-3.1875 c 0.0997,-1.75313 0.20294,-3.21163 0.22952,-3.24112 0.13898,-0.15419 5.85088,-0.1309 6.10295,0.0249 0.2006,0.12398 0.29648,1.10536 0.29648,3.03469 0,2.56328 0.0489,2.8776 0.48356,3.11024 0.26597,0.14234 1.67222,0.2588 3.125,0.2588 h 2.64144 v -2.72955 c 0,-1.50126 0.0683,-2.90751 0.15175,-3.125 0.12708,-0.33116 0.65542,-0.39545 3.25,-0.39545 h 3.09825 v 3.2119 3.2119 l 3.1732,0.16964 c 1.74527,0.0933 3.2009,0.19733 3.23475,0.23117 0.0338,0.0339 0.14109,1.4934 0.23832,3.24346 l 0.17679,3.18193 h 3.12553 3.12552 l -0.16056,2.0625 c -0.0883,1.13437 -0.16123,2.59026 -0.16205,3.2353 l -10e-4,1.1728 -3.01344,0.0772 c -1.68428,0.0431 -3.11778,-0.0276 -3.25,-0.1603 z m -6.64824,-8.55022 c 0.0889,-1.052 0.16168,-2.45825 0.16168,-3.125 V 148.875 h -3.25 -3.25 v 2.9863 2.9863 l 1.1875,0.0936 c 0.65313,0.0515 2.04287,0.11391 3.08832,0.1387 l 1.90081,0.0451 z"
           id="path755"
           transform="matrix(0.26458333,0,0,0.26458333,0.874613,63.117814)" />
        <path
           style="fill:#ffffff;stroke-width:1.25"
           d="m -233.63844,161.7625 c -0.13011,-0.13063 -0.23656,-1.62125 -0.23656,-3.3125 v -3.075 h -2.97325 c -2.4806,0 -2.9984,0.0655 -3.125,0.39545 -0.0835,0.21749 -0.15175,1.55182 -0.15175,2.96517 v 2.56973 l -1.3125,0.15765 c -0.72187,0.0867 -2.18437,0.15863 -3.25,0.15983 l -1.9375,0.002 v -3.25 -3.25 h -3.375 -3.375 v -3.375 -3.375 h -3.15886 -3.15885 l 0.18095,-3.1875 c 0.0995,-1.75313 0.20452,-3.21163 0.23331,-3.24112 0.15053,-0.15417 5.85485,-0.13092 6.10697,0.0249 0.20075,0.12407 0.29648,1.10878 0.29648,3.04967 0,2.8469 0.004,2.8681 0.64128,3.11025 0.3527,0.13409 1.75895,0.24381 3.125,0.24381 h 2.48372 v -2.72955 c 0,-1.50126 0.0683,-2.90751 0.15175,-3.125 0.12708,-0.33116 0.65542,-0.39545 3.25,-0.39545 h 3.09825 v 3.2119 3.2119 l 3.1732,0.16964 c 1.74527,0.0933 3.20483,0.20125 3.24347,0.23989 0.0386,0.0387 0.14659,1.4982 0.23989,3.24347 l 0.16964,3.1732 h 3.12434 3.12433 l -0.16243,2.28841 c -0.0893,1.25862 -0.16244,2.7145 -0.16244,3.2353 v 0.94689 l -3.01344,0.0772 c -1.68427,0.0431 -3.11778,-0.0276 -3.25,-0.1603 z m -6.65011,-8.7 c 0.0883,-1.13438 0.16123,-2.54063 0.16205,-3.125 l 0.001,-1.0625 h -3.25 -3.25 v 2.98693 2.98694 l 1.3125,0.0918 c 0.72188,0.0505 2.11145,0.11263 3.08795,0.13806 l 1.77544,0.0462 z"
           id="path794"
           transform="matrix(0.26458333,0,0,0.26458333,0.874613,63.117814)" />
        <path
           style="fill:#ffffff;stroke-width:1.25"
           d="m -167.125,156.205 c -2.2143,-0.22769 -2.07384,0.0125 -1.95422,-3.34239 l 0.10652,-2.98761 -2.26365,-0.003 c -1.24501,-0.002 -2.68552,-0.0725 -3.20115,-0.15771 l -0.9375,-0.15496 v -3.05524 -3.05523 l 2.0625,-0.16056 c 1.13438,-0.0883 2.59688,-0.16123 3.25,-0.16205 l 1.1875,-0.001 v 2.46875 c 0,1.35781 0.0676,2.80685 0.15027,3.22009 l 0.15027,0.75133 2.96728,0.1058 c 1.632,0.0582 3.02556,0.16408 3.09679,0.23531 0.0712,0.0712 0.0572,1.55583 -0.0311,3.29912 l -0.16064,3.1696 -1.77392,-0.04 c -0.97566,-0.022 -2.16767,-0.0805 -2.64892,-0.12999 z"
           id="path833"
           transform="matrix(0.26458333,0,0,0.26458333,0.874613,63.117814)" />
        <path
           style="fill:#ffffff;stroke-width:1.25"
           d="m -167.125,156.205 c -2.2143,-0.22769 -2.07384,0.0125 -1.95422,-3.34239 l 0.10652,-2.98761 -2.26365,-0.003 c -1.24501,-0.002 -2.68552,-0.0725 -3.20115,-0.15771 l -0.9375,-0.15496 v -3.05524 -3.05523 l 2.0625,-0.16056 c 1.13438,-0.0883 2.59688,-0.16123 3.25,-0.16205 l 1.1875,-0.001 v 2.46875 c 0,1.35781 0.0676,2.80685 0.15027,3.22009 l 0.15027,0.75133 2.96728,0.1058 c 1.632,0.0582 3.02556,0.16408 3.09679,0.23531 0.0712,0.0712 0.0572,1.55583 -0.0311,3.29912 l -0.16064,3.1696 -1.77392,-0.04 c -0.97566,-0.022 -2.16767,-0.0805 -2.64892,-0.12999 z"
           id="path872"
           transform="matrix(0.26458333,0,0,0.26458333,0.874613,63.117814)" />
        <path
           style="fill:#ffffff;stroke-width:1.25"
           d="m -156.125,153.125 v -3.25 h -3.125 -3.125 v -3.375 -3.375 h 0.96159 c 0.52888,0 1.99138,0.0731 3.25,0.16244 l 2.28841,0.16243 v 3.06082 c 0,2.56044 0.0647,3.08562 0.39545,3.21256 0.21749,0.0835 1.62374,0.15175 3.125,0.15175 h 2.72955 v 2.09011 c 0,1.14956 0.0715,2.61206 0.15898,3.25 l 0.15898,1.15989 h -3.40898 -3.40898 z"
           id="path911"
           transform="matrix(0.26458333,0,0,0.26458333,0.874613,63.117814)" />
        <path
           style="fill:#ffffff;stroke-width:1.25"
           d="m -156.125,153.125 v -3.25 h -3.125 -3.125 v -3.375 -3.375 h 0.96159 c 0.52888,0 1.99138,0.0731 3.25,0.16244 l 2.28841,0.16243 v 3.06082 c 0,2.56044 0.0647,3.08562 0.39545,3.21256 0.21749,0.0835 1.62374,0.15175 3.125,0.15175 h 2.72955 v 2.09011 c 0,1.14956 0.0715,2.61206 0.15898,3.25 l 0.15898,1.15989 h -3.40898 -3.40898 z"
           id="path950"
           transform="matrix(0.26458333,0,0,0.26458333,0.874613,63.117814)" />
      </g>
    </g>
  </g>
</svg>
